<svg width="64" height="64" viewBox="0 0 64 64" fill="none" xmlns="http://www.w3.org/2000/svg">
<circle cx="42" cy="39" r="1" fill="black"/>
<path fill-rule="evenodd" clip-rule="evenodd" d="M20 31C24.0025 31.4713 27.1692 33.4713 29.5 37C31.0007 34.9164 33.0007 33.5831 35.5 33C36.7798 33.1135 37.6131 33.7801 38 35C35.242 36.7956 32.4087 38.4623 29.5 40C28.2753 39.6377 27.1086 39.1377 26 38.5C25.1948 36.5283 23.8615 35.0283 22 34C20.6667 35.6667 19.3333 37.3333 18 39C17 38.6667 16.3333 38 16 37C17.7516 35.2541 19.0849 33.2541 20 31Z" fill="black"/>
<path d="M5.86967 1.75484C4.60597 3.2 4.07943 7.22581 3.65819 18.5806C3.44758 26.8387 2.28918 37.8839 1.2361 43.1484C-0.132916 50.1677 -0.343533 53.2645 0.498936 54.5032C1.44671 56.0516 4.50066 56.2581 25.2464 56.5677C52.6267 56.8774 51.2577 57.2903 53.9957 46.4516C55.9965 38.6065 57.4709 6.19355 55.8912 6.19355C55.2594 6.19355 54.5222 12.3871 54.2063 20.5419C53.3638 38.2968 51.047 50.3742 47.9931 52.8516C46.0975 54.5032 43.3595 54.7097 24.9305 54.7097C6.92276 54.7097 3.86881 54.5032 3.23696 53.1613C2.92103 52.2323 3.44758 46.9677 4.39535 41.4968C5.34313 35.9226 6.08029 25.6 6.08029 18.3742C6.08029 7.84516 6.39622 4.95484 7.76523 3.71613C10.1873 1.23871 57.7868 1.23871 60.2089 3.71613C62.7363 6.09032 62.7363 57.9097 60.2089 60.2839C58.8399 61.729 54.9435 61.9355 33.8818 61.9355C18.1908 61.9355 9.23955 62.3484 9.23955 62.9677C9.23955 63.5871 18.5067 64 34.8295 64C58.4186 64 60.6301 63.7935 62.2098 62.1419C63.7894 60.4903 64 56.7742 64 31.7935C64 5.57419 63.8947 3.30323 62.1044 1.75484C60.4195 0.206453 56.839 9.83477e-07 33.7764 9.83477e-07C10.082 9.83477e-07 7.34399 0.206453 5.86967 1.75484Z" fill="black"/>
</svg>
